<svg width="16" height="16" viewBox="0 0 16 16" fill="none" xmlns="http://www.w3.org/2000/svg">
<path d="M8.53033 2.21967C8.23744 1.92678 7.76256 1.92678 7.46967 2.21967L2.21967 7.46967C1.92678 7.76256 1.92678 8.23744 2.21967 8.53033C2.51256 8.82322 2.98744 8.82322 3.28033 8.53033L3.5 8.31066V13.25C3.5 13.6642 3.83579 14 4.25 14H5.75C6.16421 14 6.5 13.6642 6.5 13.25V11.75C6.5 11.3358 6.83579 11 7.25 11H8.75C9.16421 11 9.5 11.3358 9.5 11.75V13.25C9.5 13.6642 9.83579 14 10.25 14H11.75C12.1642 14 12.5 13.6642 12.5 13.25V8.31066L12.7197 8.53033C13.0126 8.82322 13.4874 8.82322 13.7803 8.53033C14.0732 8.23744 14.0732 7.76256 13.7803 7.46967L8.53033 2.21967Z" fill="#8D8B91"/>
</svg>
