<svg width="16" height="15" viewBox="0 0 16 15" fill="none" xmlns="http://www.w3.org/2000/svg">
<path d="M1 2.16045V6.16044M1 6.16044H5M1 6.16044L4.09333 3.25378C5.01394 2.33473 6.2083 1.73976 7.49645 1.55853C8.7846 1.37729 10.0968 1.6196 11.2352 2.24896C12.3737 2.87831 13.2768 3.86061 13.8084 5.04784C14.34 6.23508 14.4714 7.56294 14.1828 8.83135C13.8942 10.0998 13.2011 11.24 12.2081 12.0803C11.215 12.9206 9.97582 13.4153 8.67714 13.4901C7.37845 13.5648 6.09065 13.2155 5.00777 12.4947C3.92489 11.7739 3.10559 10.7207 2.67333 9.49377" stroke="#E5E7EB" stroke-width="2" stroke-linecap="round" stroke-linejoin="round"/>
</svg>
