<svg width="40" height="40" viewBox="0 0 40 40" fill="none" xmlns="http://www.w3.org/2000/svg">
<rect x="2" y="2" width="36" height="36" rx="18" stroke="#F3F4F6" stroke-width="4"/>
<path d="M20 1.9884C20 0.890239 20.8924 -0.0102387 21.9851 0.0987626C23.9306 0.292823 25.8408 0.771478 27.6537 1.52241C30.0802 2.5275 32.285 4.00069 34.1421 5.85787C35.9993 7.71504 37.4725 9.91982 38.4776 12.3463C39.2285 14.1592 39.7072 16.0694 39.9012 18.0149C40.0102 19.1076 39.1098 20 38.0116 20C36.9134 20 36.0359 19.1064 35.9 18.0167C35.7225 16.5939 35.3545 15.1984 34.8035 13.8682C33.9983 11.9242 32.818 10.1578 31.3301 8.66989C29.8422 7.182 28.0758 6.00174 26.1318 5.1965C24.8016 4.64552 23.4061 4.2775 21.9833 4.10003C20.8936 3.9641 20 3.08657 20 1.9884Z" fill="#F43F5E"/>
<path d="M12.017 23V22.2386L14.0369 20.2585C14.2301 20.0634 14.3911 19.8902 14.5199 19.7386C14.6487 19.5871 14.7453 19.4403 14.8097 19.2983C14.8741 19.1562 14.9062 19.0047 14.9062 18.8438C14.9062 18.66 14.8646 18.5028 14.7812 18.3722C14.6979 18.2396 14.5833 18.1373 14.4375 18.0653C14.2917 17.9934 14.1259 17.9574 13.9403 17.9574C13.7491 17.9574 13.5814 17.9972 13.4375 18.0767C13.2936 18.1544 13.1818 18.2652 13.1023 18.4091C13.0246 18.553 12.9858 18.7244 12.9858 18.9233H11.983C11.983 18.554 12.0672 18.233 12.2358 17.9602C12.4044 17.6875 12.6364 17.4763 12.9318 17.3267C13.2292 17.1771 13.5701 17.1023 13.9545 17.1023C14.3447 17.1023 14.6875 17.1752 14.983 17.321C15.2784 17.4669 15.5076 17.6667 15.6705 17.9205C15.8352 18.1742 15.9176 18.464 15.9176 18.7898C15.9176 19.0076 15.8759 19.2216 15.7926 19.4318C15.7093 19.642 15.5625 19.875 15.3523 20.1307C15.1439 20.3864 14.8513 20.696 14.4744 21.0597L13.4716 22.0795V22.1193H16.0057V23H12.017ZM19.0485 23.0795C18.6697 23.0795 18.3307 23.0085 18.0315 22.8665C17.7322 22.7225 17.4945 22.5256 17.3184 22.2756C17.1442 22.0256 17.0514 21.7396 17.04 21.4176H18.0627C18.0817 21.6562 18.1849 21.8513 18.3724 22.0028C18.5599 22.1525 18.7853 22.2273 19.0485 22.2273C19.255 22.2273 19.4387 22.1799 19.5997 22.0852C19.7606 21.9905 19.8875 21.8589 19.9803 21.6903C20.0731 21.5218 20.1186 21.3295 20.1167 21.1136C20.1186 20.8939 20.0722 20.6989 19.9775 20.5284C19.8828 20.358 19.7531 20.2244 19.5883 20.1278C19.4235 20.0294 19.2341 19.9801 19.0201 19.9801C18.8459 19.9782 18.6745 20.0104 18.5059 20.0767C18.3373 20.143 18.2038 20.2301 18.1053 20.3381L17.1536 20.1818L17.4576 17.1818H20.8326V18.0625H18.3298L18.1622 19.6051H18.1962C18.3042 19.4782 18.4567 19.3731 18.6536 19.2898C18.8506 19.2045 19.0665 19.1619 19.3014 19.1619C19.6536 19.1619 19.968 19.2453 20.2445 19.4119C20.5211 19.5767 20.7389 19.804 20.898 20.0938C21.057 20.3835 21.1366 20.715 21.1366 21.0881C21.1366 21.4725 21.0476 21.8153 20.8695 22.1165C20.6934 22.4157 20.4481 22.6515 20.1337 22.8239C19.8212 22.9943 19.4595 23.0795 19.0485 23.0795ZM25.2391 21.9091V21.6023C25.2391 21.3769 25.2864 21.1695 25.3811 20.9801C25.4777 20.7907 25.6179 20.6383 25.8016 20.5227C25.9853 20.4072 26.2078 20.3494 26.4692 20.3494C26.7381 20.3494 26.9635 20.4072 27.1453 20.5227C27.3272 20.6364 27.4645 20.7879 27.5573 20.9773C27.652 21.1667 27.6993 21.375 27.6993 21.6023V21.9091C27.6993 22.1345 27.652 22.3419 27.5573 22.5312C27.4626 22.7206 27.3234 22.8731 27.1397 22.9886C26.9578 23.1042 26.7344 23.1619 26.4692 23.1619C26.2041 23.1619 25.9796 23.1042 25.7959 22.9886C25.6122 22.8731 25.473 22.7206 25.3783 22.5312C25.2855 22.3419 25.2391 22.1345 25.2391 21.9091ZM25.9806 21.6023V21.9091C25.9806 22.0587 26.0166 22.196 26.0885 22.321C26.1605 22.446 26.2874 22.5085 26.4692 22.5085C26.6529 22.5085 26.7789 22.447 26.847 22.3239C26.9171 22.1989 26.9522 22.0606 26.9522 21.9091V21.6023C26.9522 21.4508 26.919 21.3125 26.8527 21.1875C26.7864 21.0606 26.6586 20.9972 26.4692 20.9972C26.2912 20.9972 26.1652 21.0606 26.0914 21.1875C26.0175 21.3125 25.9806 21.4508 25.9806 21.6023ZM22.2817 18.5795V18.2727C22.2817 18.0455 22.33 17.8371 22.4266 17.6477C22.5232 17.4583 22.6633 17.3068 22.847 17.1932C23.0308 17.0777 23.2533 17.0199 23.5147 17.0199C23.7817 17.0199 24.0061 17.0777 24.188 17.1932C24.3717 17.3068 24.5099 17.4583 24.6027 17.6477C24.6955 17.8371 24.7419 18.0455 24.7419 18.2727V18.5795C24.7419 18.8068 24.6946 19.0152 24.5999 19.2045C24.5071 19.392 24.3688 19.5426 24.1851 19.6562C24.0014 19.7699 23.7779 19.8267 23.5147 19.8267C23.2476 19.8267 23.0222 19.7699 22.8385 19.6562C22.6567 19.5426 22.5184 19.3911 22.4237 19.2017C22.3291 19.0123 22.2817 18.8049 22.2817 18.5795ZM23.0289 18.2727V18.5795C23.0289 18.7311 23.0639 18.8693 23.134 18.9943C23.2059 19.1174 23.3328 19.179 23.5147 19.179C23.6965 19.179 23.8215 19.1174 23.8897 18.9943C23.9597 18.8693 23.9948 18.7311 23.9948 18.5795V18.2727C23.9948 18.1212 23.9616 17.983 23.8953 17.858C23.8291 17.7311 23.7022 17.6676 23.5147 17.6676C23.3347 17.6676 23.2088 17.7311 23.1368 17.858C23.0648 17.9848 23.0289 18.1231 23.0289 18.2727ZM22.6056 23L26.6056 17.1818H27.3158L23.3158 23H22.6056Z" fill="#F43F5E"/>
</svg>
