<svg width="16" height="15" viewBox="0 0 16 15" fill="none" xmlns="http://www.w3.org/2000/svg">
<path d="M14.8494 2.16537V6.16537M14.8494 6.16537H10.8494M14.8494 6.16537L11.7628 3.25871C10.8432 2.33853 9.64943 1.74216 8.36141 1.55947C7.0734 1.37677 5.76089 1.61765 4.62168 2.2458C3.48247 2.87395 2.57828 3.85534 2.04536 5.04208C1.51243 6.22883 1.37965 7.55663 1.66702 8.8254C1.9544 10.0942 2.64635 11.2352 3.63862 12.0765C4.63088 12.9178 5.8697 13.4138 7.16839 13.4898C8.46708 13.5657 9.75528 13.2176 10.8389 12.4977C11.9225 11.7778 12.7428 10.7253 13.1761 9.4987" stroke="#E5E7EB" stroke-width="2" stroke-linecap="round" stroke-linejoin="round"/>
</svg>
