<svg width="18" height="15" viewBox="0 0 18 15" fill="none" xmlns="http://www.w3.org/2000/svg">
<path d="M12.5066 10.0621L11.3901 9.41734C11.5028 8.80927 11.5028 8.18549 11.3901 7.57742L12.5066 6.93267C12.635 6.85928 12.6927 6.70726 12.6508 6.56573C12.3598 5.63267 11.8645 4.78872 11.2171 4.08631C11.1175 3.97885 10.955 3.95264 10.8292 4.02603L9.71266 4.67078C9.24351 4.26715 8.70359 3.95526 8.11912 3.75082V2.46393C8.11912 2.31716 8.0169 2.18873 7.87275 2.15728C6.91086 1.94236 5.92538 1.95285 5.01066 2.15728C4.86651 2.18873 4.76429 2.31716 4.76429 2.46393V3.75345C4.18244 3.9605 3.64252 4.2724 3.17075 4.6734L2.05684 4.02865C1.92842 3.95526 1.76854 3.97885 1.66894 4.08893C1.02157 4.78872 0.526205 5.63267 0.235279 6.56835C0.190722 6.70989 0.251005 6.8619 0.379431 6.93529L1.49596 7.58004C1.38326 8.18811 1.38326 8.81189 1.49596 9.41996L0.379431 10.0647C0.251005 10.1381 0.193343 10.2901 0.235279 10.4316C0.526205 11.3647 1.02157 12.2087 1.66894 12.9111C1.76854 13.0185 1.93104 13.0447 2.05684 12.9714L3.17337 12.3266C3.64252 12.7302 4.18244 13.0421 4.76692 13.2466V14.5361C4.76692 14.6828 4.86913 14.8113 5.01329 14.8427C5.97518 15.0576 6.96066 15.0472 7.87537 14.8427C8.01952 14.8113 8.12174 14.6828 8.12174 14.5361V13.2466C8.70359 13.0395 9.24351 12.7276 9.71528 12.3266L10.8318 12.9714C10.9602 13.0447 11.1201 13.0212 11.2197 12.9111C11.8671 12.2113 12.3625 11.3673 12.6534 10.4316C12.6927 10.2875 12.635 10.1355 12.5066 10.0621ZM6.44171 10.5941C5.28587 10.5941 4.34494 9.65322 4.34494 8.49738C4.34494 7.34154 5.28587 6.40061 6.44171 6.40061C7.59755 6.40061 8.53847 7.34154 8.53847 8.49738C8.53847 9.65322 7.59755 10.5941 6.44171 10.5941Z" fill="#E5E7EB"/>
<rect x="7" width="11" height="8" rx="2" fill="#E11D48"/>
<path d="M8.5878 6V1.63636H9.24618V3.53267H11.4216V1.63636H12.0821V6H11.4216V4.0973H9.24618V6H8.5878ZM14.4536 6H13.0409V1.63636H14.4983C14.9259 1.63636 15.2931 1.72372 15.5999 1.89844C15.9067 2.07173 16.1418 2.32102 16.3051 2.64631C16.4699 2.97017 16.5523 3.35866 16.5523 3.81179C16.5523 4.26634 16.4692 4.65696 16.303 4.98366C16.1382 5.31037 15.8996 5.56179 15.5871 5.73793C15.2746 5.91264 14.8968 6 14.4536 6ZM13.6993 5.42472H14.4173C14.7497 5.42472 15.026 5.36222 15.2462 5.23722C15.4664 5.1108 15.6311 4.92827 15.7405 4.68963C15.8499 4.44957 15.9046 4.15696 15.9046 3.81179C15.9046 3.46946 15.8499 3.17898 15.7405 2.94034C15.6325 2.7017 15.4713 2.5206 15.2568 2.39702C15.0423 2.27344 14.776 2.21165 14.4578 2.21165H13.6993V5.42472Z" fill="#F9FAFB"/>
</svg>
